/* XPM */
static char *gnome-alsamixer-icon[] = {
/* columns rows colors chars-per-pixel */
"32 32 139 2",
"   c #000000",
".  c #010101",
"X  c #020202",
"o  c #030303",
"O  c #040404",
"+  c #060606",
"@  c #070707",
"#  c #080808",
"$  c #090909",
"%  c #0A0A0A",
"&  c #0B0B0B",
"*  c #0C0C0C",
"=  c #0D0D0D",
"-  c #0E0E0E",
";  c #121212",
":  c #141414",
">  c #151515",
",  c #161616",
"<  c #181818",
"1  c #1B1B1B",
"2  c #1C1C1C",
"3  c #1F1F1F",
"4  c #202020",
"5  c #212121",
"6  c #252525",
"7  c #282828",
"8  c #292929",
"9  c #2C2C2C",
"0  c #2D2D2D",
"q  c #2E2E2E",
"w  c #2F2F2F",
"e  c #323232",
"r  c #333333",
"t  c #353535",
"y  c #363636",
"u  c #383838",
"i  c #393939",
"p  c #3A3A3A",
"a  c #3B3B3B",
"s  c #3C3C3C",
"d  c #3D3D3D",
"f  c #3E3E3E",
"g  c #3F3F3F",
"h  c #414141",
"j  c #424242",
"k  c #434343",
"l  c #444444",
"z  c #454545",
"x  c #464646",
"c  c #474747",
"v  c #484848",
"b  c #494949",
"n  c #4A4A4A",
"m  c #4B4B4B",
"M  c #4C4C4C",
"N  c #4D4D4D",
"B  c #4E4E4E",
"V  c #4F4F4F",
"C  c #505050",
"Z  c #515151",
"A  c #525252",
"S  c #535353",
"D  c #545454",
"F  c #555555",
"G  c #565656",
"H  c #575757",
"J  c #585858",
"K  c #595959",
"L  c #5A5A5A",
"P  c #5B5B5B",
"I  c #5C5C5C",
"U  c #5D5D5D",
"Y  c #5E5E5E",
"T  c #5F5F5F",
"R  c #606060",
"E  c #616161",
"W  c #626262",
"Q  c #636363",
"!  c #646464",
"~  c #656565",
"^  c #666666",
"/  c #676767",
"(  c #686868",
")  c #696969",
"_  c #6A6A6A",
"`  c #6B6B6B",
"'  c #6C6C6C",
"]  c #6D6D6D",
"[  c #6E6E6E",
"{  c #6F6F6F",
"}  c #707070",
"|  c #717171",
" . c #727272",
".. c #737373",
"X. c #747474",
"o. c #757575",
"O. c #767676",
"+. c #777777",
"@. c #787878",
"#. c #797979",
"$. c #7A7A7A",
"%. c #7B7B7B",
"&. c #7C7C7C",
"*. c #7D7D7D",
"=. c #7E7E7E",
"-. c #7F7F7F",
";. c #808080",
":. c #818181",
">. c #828282",
",. c #838383",
"<. c #848484",
"1. c #858585",
"2. c #868686",
"3. c #878787",
"4. c #888888",
"5. c #898989",
"6. c #8A8A8A",
"7. c #8B8B8B",
"8. c #8C8C8C",
"9. c #8D8D8D",
"0. c #8E8E8E",
"q. c #8F8F8F",
"w. c #909090",
"e. c #919191",
"r. c #929292",
"t. c #939393",
"y. c #949494",
"u. c #969696",
"i. c #979797",
"p. c #989898",
"a. c #999999",
"s. c #9A9A9A",
"d. c #9B9B9B",
"f. c #9C9C9C",
"g. c #9E9E9E",
"h. c #9F9F9F",
"j. c #A0A0A0",
"k. c #A1A1A1",
"l. c None",
/* pixels */
"l.l.l.l.l.l.l.l.l.l.l.l.l.l.l.l.l.l.l.l.l.l.l.l.l.l.l.l.l.l.l.l.",
"l.l.l.l.l.l.l.l.l.l.l.l.l.l.l.l.l.l.l.l.l.l.l.l.l.l.l.l.l.l.l.l.",
"l.l.l.l.l.l.l.l.l.l.l.l.l.l.l.l.l.l.l.              l.l.l.l.l.l.",
"l.l.l.l.l.l.& = = = = ; = = = = = h Q Q P P P 4       l.l.l.l.l.",
", u t t t g %.4.4.4.4.4.4.<.<.<.<.9.u.q.q.9.q.l         l.l.l.l.",
"g h.h.f.f.f.f.s.u.s.s.q.<.u.u.:.%.q.9./ <.4.4...=       l.l.l.l.",
"g f.h.%.<.s.s.9.! q.u.4.L 4.u.:.Q 4.9.L | 4.<.%.2       l.l.l.l.",
", $.f.[ [ u.s.9.S 4.u.9.L :.q.<.S :.9.$.! <.<.<.M         l.l.l.",
"  ! f.%.Q q.u.9.Q <.u.q./ | 9.4.! ..4.%.S %.:.<.P &       l.l.l.",
"  Q f.4.H 9.u.f.q.f.u.q.[ P 9.q.f.s.q.:.P | :.:.$.6       l.l.l.",
"  Q s.4.M 4.q.s.$...:.9.| L <.9.9.$.%.<.! P %.%.$.u         l.l.",
"  Q s.9.S :.u.q.%.| $.4.:.L %.4.4.| ..:.[ L $.$.$.! &       l.l.",
"  Q s.9.L ..9.9...L ..4.q.%.4.4.%.S / :.%.S | $.$.| <       l.l.",
"  7 4.q.Q ! 9.9.:.H $.4.u.s.4.%.<.Q Q %.%.H Q $.....h         l.",
"  = :.q./ P 4.9.4.S / 4.4.:.$.%.:...M ..%./ H ....$.S +       l.",
"l.= :.q./ H 4.4.4.L ! <.<...P | %...n | %...P <...| [ 4       l.",
"l.= :.9.| S :.4.4.! L :.<...M [ %.%.L Q $.q.u.4.| | | e         ",
"l.= %.9.$.M $.<.<.| n %.:.%.H Q %.%.L S ..:.$...| [ [ L +       ",
"l.= %.4.%.M ..9.<.$.l ..%.:.P S $.$.! M | ..%.! / [ [ ! ,       ",
"l.  n 9.h.q.q.9.:.$.M [ %.%.! M ....| n ! | [ l P [ / / u       ",
"l.l.0 9.s.:.....%.%.H P $.$.[ M [ ....l L | [ S P [ [ ! u       ",
"l.l.0 <.9.%.$.$.%.:.L S $.$...l Q ..| Q Q | | ! Q M e 2 =       ",
"l.l.0 <.4.| Q [ $.%.P n ..$.$.P ! | | | ! S h 6 = +             ",
"l.l.0 <.%.! h ..%.$.[ Q | $...| [ ! n 0 2 &                     ",
"l.l.7 %.:...H ..%.$.$.$...! S h 2 & +                           ",
"l.l.= P %.%.$.%...[ P g 7 ,                               l.l.l.",
"l.    S :...P M e ; &                             l.l.l.l.l.l.l.",
"l.l.  g u 4 &                               l.l.l.l.l.l.l.l.l.l.",
"l.l.  +                               l.l.l.l.l.l.l.l.l.l.l.l.l.",
"l.l.                        l.l.l.l.l.l.l.l.l.l.l.l.l.l.l.l.l.l.",
"l.l.l.                l.l.l.l.l.l.l.l.l.l.l.l.l.l.l.l.l.l.l.l.l.",
"l.l.l.l.      l.l.l.l.l.l.l.l.l.l.l.l.l.l.l.l.l.l.l.l.l.l.l.l.l."
};
